<svg width="1430" height="816" viewBox="0 0 1430 816" fill="none" xmlns="http://www.w3.org/2000/svg">
<rect width="1430" height="816" rx="30" fill="#383838"/>
<path fill-rule="evenodd" clip-rule="evenodd" d="M647.351 582.433H772.293L772.308 411.523L647.351 362.183V582.433Z" fill="#00ACD7"/>
<path fill-rule="evenodd" clip-rule="evenodd" d="M647.351 231V341.123L772.308 390.493L772.293 231H647.351Z" fill="#00ACD7"/>
<path fill-rule="evenodd" clip-rule="evenodd" d="M503 231V451.25L627.953 401.91L627.939 231H503Z" fill="#00ACD7"/>
<path fill-rule="evenodd" clip-rule="evenodd" d="M503 582.383H627.939L627.953 422.893L503 472.26V582.383Z" fill="#00ACD7"/>
<path d="M575.989 466.15C575.25 466.15 575.065 465.78 575.435 465.226L579.315 460.236C579.685 459.681 580.609 459.312 581.348 459.312H647.315C648.054 459.312 648.239 459.866 647.87 460.42L644.728 465.226C644.359 465.78 643.435 466.335 642.88 466.335L575.989 466.15Z" fill="white"/>
<path d="M548.087 483.153C547.348 483.153 547.163 482.783 547.533 482.229L551.413 477.239C551.783 476.684 552.707 476.315 553.446 476.315H637.707C638.446 476.315 638.815 476.869 638.63 477.424L637.152 481.859C636.967 482.598 636.228 482.968 635.489 482.968L548.087 483.153Z" fill="white"/>
<path d="M592.804 500.156C592.065 500.156 591.88 499.602 592.25 499.047L594.837 494.427C595.207 493.872 595.946 493.318 596.685 493.318H633.641C634.38 493.318 634.75 493.872 634.75 494.612L634.38 499.047C634.38 499.786 633.641 500.341 633.087 500.341L592.804 500.156Z" fill="white"/>
<path d="M784.609 462.823C772.967 465.78 765.022 467.998 753.565 470.955C750.793 471.694 750.609 471.879 748.207 469.107C745.435 465.965 743.402 463.932 739.522 462.084C727.88 456.354 716.609 458.018 706.076 464.856C693.511 472.988 687.043 485.001 687.228 499.971C687.413 514.757 697.576 526.954 712.174 528.987C724.739 530.651 735.272 526.215 743.587 516.79C745.25 514.757 746.728 512.539 748.576 509.951C741.924 509.951 733.609 509.951 712.913 509.951C709.033 509.951 708.109 507.549 709.402 504.407C711.804 498.677 716.239 489.067 718.826 484.262C719.38 483.153 720.674 481.305 723.446 481.305C732.87 481.305 767.609 481.305 790.707 481.305C790.337 486.295 790.337 491.285 789.598 496.275C787.565 509.582 782.576 521.78 774.446 532.499C761.141 550.057 743.772 560.961 721.783 563.918C703.674 566.32 686.859 562.809 672.076 551.72C658.402 541.37 650.641 527.694 648.609 510.691C646.207 490.546 652.12 472.433 664.315 456.539C677.435 439.351 694.804 428.447 716.054 424.566C733.424 421.424 750.054 423.457 765.022 433.622C774.815 440.091 781.837 448.962 786.457 459.681C787.565 461.344 786.826 462.269 784.609 462.823Z" fill="white"/>
<path d="M845.772 565.027C828.957 564.657 813.62 559.852 800.685 548.763C789.783 539.337 782.946 527.324 780.728 513.093C777.402 492.209 783.13 473.727 795.696 457.279C809.185 439.536 825.446 430.295 847.435 426.414C866.283 423.087 884.022 424.936 900.098 435.84C914.696 445.82 923.75 459.312 926.152 477.054C929.293 502.004 922.087 522.334 904.902 539.707C892.707 552.09 877.739 559.852 860.554 563.363C855.565 564.287 850.576 564.472 845.772 565.027ZM889.75 490.361C889.565 487.958 889.565 486.11 889.196 484.262C885.87 465.965 869.054 455.615 851.5 459.681C834.315 463.562 823.228 474.466 819.163 491.839C815.837 506.255 822.859 520.855 836.163 526.77C846.326 531.205 856.489 530.651 866.283 525.661C880.88 518.083 888.826 506.255 889.75 490.361Z" fill="white"/>
</svg>
